<?xml version="1.0" encoding="UTF-8"?>
<svg id="Layer_1" data-name="Layer 1" xmlns="http://www.w3.org/2000/svg" viewBox="0 0 256 256">
  <defs>
    <style>
      .cls-1 {
        fill: #fff;
      }

      .cls-2 {
        fill: #76b900;
      }
    </style>
  </defs>
  <rect class="cls-1" width="256" height="256"/>
  <g id="NVIDIA_Logo" data-name="NVIDIA Logo">
    <path id="NVIDIA" d="M114.98652,158.91881v28.95103h8.17631v-28.95007l-8.17631-.00096ZM50.66817,158.87946v28.99038h8.25308v-22.01268h6.38942c2.11701,0,3.62464.52589,4.64476,1.6151,1.29362,1.37807,1.82336,3.59969,1.82336,7.66481v12.7299h7.99109v-16.01481c0-11.43147-7.2867-12.97364-14.41506-12.97364h-14.6828M128.155,158.91882v28.95008h13.26154c7.06598,0,9.37205-1.17558,11.8662-3.80985,1.7629-1.84927,2.90201-5.90958,2.90201-10.34705,0-4.06896-.96446-7.69935-2.64674-9.95936-3.02869-4.04305-7.38939-4.83381-13.9074-4.83381h-11.47562ZM136.26605,165.22283h3.51524c5.09964,0,8.39799,2.29071,8.39799,8.23293s-3.29835,8.23389-8.39799,8.23389h-3.51524v-16.46682ZM103.20191,158.91883l-6.82318,22.94452-6.53913-22.9426h-8.82888l9.33846,28.95008h11.7827l9.41139-28.95008-8.34136-.00192ZM159.98885,187.86891h8.17822v-28.94722h-8.18014l.00192,28.94722ZM182.90938,158.9294l-11.41996,28.92992h8.06115l1.80704-5.11403h13.51106l1.71011,5.11403h8.75306l-11.50057-28.93091-10.92189.001ZM188.21726,164.20753l4.95281,13.55232h-10.06589l5.11309-13.55232Z"/>
    <path id="Eye_Mark" data-name="Eye Mark" class="cls-2" d="M104.17787,91.10632v-6.95562c.67176-.04798,1.35696-.08349,2.05175-.10556,19.02239-.59787,31.50181,16.34493,31.50181,16.34493,0,0-13.47556,18.7201-27.93092,18.7201-1.91095.00799-3.8103-.29706-5.62265-.90304v-21.08566c7.40474.8944,8.89413,4.16588,13.34696,11.58694l9.89793-8.35097s-7.22816-9.47953-19.41201-9.47953c-1.28268.00646-2.56409.08207-3.83864.22648M104.17211,68.12917v10.39025c.68232-.05374,1.36559-.09597,2.05175-.12188,26.45304-.89153,43.68758,21.69408,43.68758,21.69408,0,0-19.79011,24.07116-40.41226,24.07116-1.78406-.00005-3.56467-.15675-5.32132-.46831v6.42109c1.46931.18992,2.94922.28608,4.43075.2879,19.19321,0,33.07086-9.80005,46.50994-21.40043,2.22641,1.78401,11.34991,6.12359,13.22603,8.0266-12.77979,10.69638-42.55325,19.31509-59.44328,19.31509-1.62663,0-3.19183-.09597-4.72633-.24567v9.0208h72.94284v-76.98875l-72.94572-.00192ZM104.17211,118.20904v5.4835c-17.75372-3.16688-22.67677-21.61635-22.67677-21.61635,0,0,8.52178-9.4421,22.67677-10.9718v6.01515h-.02783c-7.42777-.89248-13.23084,6.04586-13.23084,6.04586,0,0,3.25709,11.68292,13.26443,15.04173M72.65111,101.27872s10.5198-15.52346,31.52677-17.12802v-5.63129c-23.26697,1.8675-43.41504,21.5722-43.41504,21.5722,0,0,11.41132,32.99025,43.41504,36.0103v-5.98636c-23.48577-2.9548-31.52677-28.83684-31.52677-28.83684Z"/>
  </g>
</svg>